<?xml version="1.0" encoding="iso-8859-1"?>
<!-- Generator: Adobe Illustrator 19.1.0, SVG Export Plug-In . SVG Version: 6.00 Build 0)  -->
<svg version="1.1" id="Capa_1" xmlns="http://www.w3.org/2000/svg" xmlns:xlink="http://www.w3.org/1999/xlink" x="0px" y="0px"
	 viewBox="0 0 471.08 471.08" style="enable-background:new 0 0 471.08 471.08;" xml:space="preserve">
<g>
	<g id="XMLID_45_">
		<g>
			<path style="fill:#F97946;" d="M190.902,298.71l12.73,19.21l-48.81,117.85c-4.26,10.29-12.27,18.3-22.56,22.56
				c-10.29,4.26-21.62,4.26-31.91,0c-21.23-8.79-31.35-33.23-22.56-54.46c4.45-10.75,13.27-19.2,24.17-23.19
				c38.93-10.85,71.68-40.31,87.63-78.81L190.902,298.71z M149.842,433.71c3.71-8.96,3.71-18.82,0-27.78
				c-3.71-8.96-10.69-15.93-19.65-19.64c-18.49-7.66-39.76,1.15-47.42,19.64c-3.71,8.96-3.71,18.82,0,27.78
				c3.71,8.95,10.69,15.93,19.65,19.64c4.52,1.88,9.22,2.76,13.84,2.76C130.512,456.11,144.052,447.67,149.842,433.71z"/>
			<path style="fill:#F97946;" d="M393.282,404.41c4.26,10.29,4.26,21.62,0,31.9c-4.26,10.29-12.27,18.3-22.56,22.57
				c-10.28,4.26-21.62,4.26-31.9,0c-10.29-4.26-18.3-12.28-22.56-22.56l-48.82-117.85l12.73-19.21l1.31,3.16
				c15.95,38.49,48.7,67.94,87.62,78.8C380.022,385.22,388.832,393.67,393.282,404.41z M368.662,453.89
				c18.49-7.66,27.3-28.93,19.64-47.42c-3.71-8.95-10.69-15.93-19.64-19.64c-8.96-3.71-18.83-3.71-27.78,0
				c-18.49,7.66-27.3,28.93-19.64,47.42c5.78,13.97,19.33,22.41,33.58,22.41C359.442,456.66,364.132,455.77,368.662,453.89z"/>
			<path style="fill:#A7B6C4;" d="M131.892,33.02l141.07,260.84l-9.48,14.3l-47.29-13.93l-67.23-172.49
				C137.832,93.19,132.112,63.41,131.892,33.02z M250.462,274.68c0-1.81-0.35-3.66-1.09-5.44c-1.45-3.52-4.19-6.26-7.71-7.72
				c-3.53-1.46-7.4-1.46-10.92,0c-3.52,1.46-6.26,4.2-7.72,7.72c-1.46,3.52-1.46,7.4,0,10.92c2.27,5.48,7.6,8.8,13.2,8.8
				c1.81,0,3.66-0.35,5.44-1.08C247.142,285.61,250.462,280.29,250.462,274.68z"/>
			<path style="fill:#A7B6C4;" d="M241.802,217.34l99.49-183.96c-0.1,12.33-1.12,24.68-3.04,36.87c-2.8,17.7-7.51,35.14-14.01,51.83
				l-56.11,143.94L241.802,217.34z"/>
			<path d="M401.602,400.96c10.69,25.83-1.61,55.53-27.43,66.23c-6.26,2.59-12.83,3.89-19.4,3.89s-13.14-1.3-19.4-3.89
				c-10.68-4.42-19.33-12.18-24.86-22.13c-0.59,0.07-1.18,0.12-1.78,0.12c-1.98,0-3.97-0.39-5.86-1.18
				c-3.78-1.56-6.71-4.5-8.28-8.27l-1.78-4.31c-1.57-3.78-1.57-7.93,0-11.7c0.97-2.35,2.47-4.37,4.37-5.94l-38.97-94.08
				c-0.5-1.19-0.45-2.53,0.11-3.68l-21.14-6.23l-24.02,7.08c0.1,0.76,0.01,1.55-0.3,2.28l-49.73,120.06
				c-8.07,19.5-26.99,31.3-46.89,31.3c-6.45,0-13.01-1.24-19.33-3.86c-25.82-10.7-38.13-40.41-27.43-66.23
				c5.42-13.09,16.17-23.38,29.5-28.23c0.16-0.06,0.32-0.12,0.49-0.16c36.32-10.1,66.9-37.62,81.8-73.6h0.01l4.54-10.97
				c0.64-1.54,2.07-2.6,3.72-2.76c1.66-0.15,3.27,0.61,4.19,1.99l0.19,0.29l5.68-10.51l-59.03-151.46
				c-13.63-34.99-19.43-71.73-17.24-109.22L124.262,0l112.43,207.88L348.932,0.33l0.92,15.79c1.09,18.5,0.18,37.19-2.71,55.53
				c-2.9,18.34-7.78,36.41-14.51,53.69l-58.88,151.06l5.1,9.44c0.8-0.46,1.73-0.68,2.68-0.59c1.65,0.16,3.08,1.22,3.72,2.75
				l4.54,10.97c14.91,35.99,45.49,63.5,81.81,73.6c0.17,0.05,0.33,0.1,0.48,0.15C385.422,377.58,396.172,387.87,401.602,400.96z
				 M393.282,436.31c4.26-10.28,4.26-21.61,0-31.9c-4.45-10.74-13.26-19.19-24.18-23.19c-38.92-10.86-71.67-40.31-87.62-78.8
				l-1.31-3.16l-12.73,19.21l48.82,117.85c4.26,10.28,12.27,18.3,22.56,22.56c10.28,4.26,21.62,4.26,31.9,0
				C381.012,454.61,389.022,446.6,393.282,436.31z M341.292,33.38l-99.49,183.96l26.33,48.68l56.11-143.94
				c6.5-16.69,11.21-34.13,14.01-51.83C340.172,58.06,341.192,45.71,341.292,33.38z M306.242,435.65l-5.14-12.42
				c-0.62,1.54-0.61,3.21,0.02,4.74l1.79,4.31C303.542,433.81,304.722,435,306.242,435.65z M272.962,293.86L131.892,33.02
				c0.22,30.39,5.94,60.17,17.07,88.72l67.23,172.49l47.29,13.93L272.962,293.86z M208.432,308.88l12.83-3.78l-11.86-3.49
				l-5.51-14.15l-4.34,8.02L208.432,308.88z M203.632,317.92l-12.73-19.21l-1.31,3.16c-15.95,38.5-48.7,67.96-87.63,78.81
				c-10.9,3.99-19.72,12.44-24.17,23.19c-8.79,21.23,1.33,45.67,22.56,54.46c10.29,4.26,21.62,4.26,31.91,0
				c10.29-4.26,18.3-12.27,22.56-22.56L203.632,317.92z"/>
			<path d="M388.302,406.47c7.66,18.49-1.15,39.76-19.64,47.42c-4.53,1.88-9.22,2.77-13.84,2.77c-14.25,0-27.8-8.44-33.58-22.41
				c-7.66-18.49,1.15-39.76,19.64-47.42c8.95-3.71,18.82-3.71,27.78,0C377.612,390.54,384.592,397.52,388.302,406.47z
				 M382.072,420.32c0-3.47-0.67-7-2.08-10.4c-2.79-6.74-8.04-11.98-14.78-14.77c-3.36-1.4-6.9-2.1-10.44-2.1s-7.08,0.7-10.45,2.1
				c-13.9,5.76-20.53,21.75-14.77,35.66c5.76,13.9,21.76,20.53,35.66,14.77C375.712,441.23,382.072,431.04,382.072,420.32z"/>
			<path d="M249.372,269.24c0.74,1.78,1.09,3.63,1.09,5.44c0,5.61-3.32,10.93-8.8,13.2c-1.78,0.73-3.63,1.08-5.44,1.08
				c-5.6,0-10.93-3.32-13.2-8.8c-1.46-3.52-1.46-7.4,0-10.92c1.46-3.52,4.2-6.26,7.72-7.72c3.52-1.46,7.39-1.46,10.92,0
				C245.182,262.98,247.922,265.72,249.372,269.24z M238.212,279.56c2.68-1.11,3.96-4.2,2.85-6.88c-0.54-1.3-1.55-2.31-2.85-2.85
				c-0.65-0.27-1.33-0.4-2.01-0.4c-0.69,0-1.37,0.13-2.02,0.4c-1.3,0.54-2.31,1.55-2.85,2.85c-0.54,1.3-0.54,2.73,0,4.03
				C232.442,279.39,235.532,280.67,238.212,279.56z"/>
			<path d="M149.842,405.93c3.71,8.96,3.71,18.82,0,27.78c-5.79,13.96-19.33,22.4-33.58,22.4c-4.62,0-9.32-0.88-13.84-2.76
				c-8.96-3.71-15.94-10.69-19.65-19.64c-3.71-8.96-3.71-18.82,0-27.78c7.66-18.49,28.93-27.3,47.42-19.64
				C139.152,390,146.132,396.97,149.842,405.93z M141.522,430.26c2.79-6.73,2.79-14.15,0-20.89c-2.79-6.73-8.04-11.98-14.77-14.77
				c-3.4-1.41-6.94-2.08-10.41-2.08c-5.36,0-10.58,1.59-15.01,4.49c-4.43,2.9-8.07,7.11-10.24,12.36c-2.79,6.74-2.79,14.16,0,20.89
				c2.79,6.74,8.03,11.99,14.77,14.78C119.762,450.79,135.762,444.17,141.522,430.26z"/>
		</g>
	</g>
</g>
<g>
</g>
<g>
</g>
<g>
</g>
<g>
</g>
<g>
</g>
<g>
</g>
<g>
</g>
<g>
</g>
<g>
</g>
<g>
</g>
<g>
</g>
<g>
</g>
<g>
</g>
<g>
</g>
<g>
</g>
</svg>
